<?xml version="1.0" encoding="utf-8"?>
<!-- Generator: Adobe Illustrator 26.5.0, SVG Export Plug-In . SVG Version: 6.00 Build 0)  -->
<svg version="1.1" id="Layer_1" xmlns="http://www.w3.org/2000/svg" xmlns:xlink="http://www.w3.org/1999/xlink" x="0px" y="0px"
	 viewBox="0 0 529.29 193.17" style="enable-background:new 0 0 529.29 193.17;" xml:space="preserve">
<style type="text/css">
	.st0{fill:#060304;}
	.st1{fill:#FFFFFF;}
	.st2{fill:none;stroke:#BF96A2;stroke-width:30;stroke-miterlimit:10;}
	.st3{fill:none;stroke:#FFFFFF;stroke-width:40;stroke-miterlimit:10;}
</style>
<rect x="108.09" y="243.38" class="st0" width="636.47" height="312.94"/>
<g>
	<path class="st1" d="M174.68-177.63L-62.99-335.02c-4.14-2.74-5.28-8.33-2.53-12.47l0,0c2.74-4.14,8.33-5.28,12.47-2.53
		l227.73,150.8c3.01,1.99,6.93,1.99,9.94,0l227.74-150.8c4.14-2.74,9.73-1.61,12.47,2.54v0c2.74,4.14,1.61,9.73-2.54,12.47
		L184.62-177.63C181.61-175.64,177.7-175.64,174.68-177.63z"/>
</g>
<g>
	<path class="st1" d="M255.35,190.37L22.46,36.15c-7.75-5.13-9.87-15.57-4.74-23.32l3.5-5.29c5.13-7.75,15.57-9.87,23.32-4.74
		l210.81,139.6c5.63,3.73,12.95,3.73,18.58,0L484.75,2.8c7.75-5.13,18.19-3.01,23.32,4.74l3.5,5.29c5.13,7.75,3.01,18.19-4.74,23.32
		l-232.9,154.22C268.3,194.1,260.98,194.1,255.35,190.37z"/>
</g>
<polyline class="st2" points="500.96,-230.93 255.78,-68.58 10.6,-230.93 "/>
<polyline class="st3" points="529.29,-237.14 284.11,-74.79 38.93,-237.14 "/>
</svg>
